<?xml version="1.0" encoding="UTF-8"?>
<svg width="72px" height="72px" viewBox="0 0 72 72" version="1.1" xmlns="http://www.w3.org/2000/svg" xmlns:xlink="http://www.w3.org/1999/xlink">
    <title>icon-4</title>
    <g id="Symbols" stroke="none" stroke-width="1" fill="none" fill-rule="evenodd">
        <g id="icon-4" fill-rule="nonzero">
            <g id="010-dentist-chair">
                <path d="M71.6890781,26.4923437 C71.6890781,26.4923437 69.4320469,19.1335781 69.4272656,19.1179687 C69.2039531,18.3898125 68.3985938,17.9616094 67.6708594,18.1868906 C66.9407344,18.412875 66.5115469,19.2110625 66.738375,19.9432969 L67.9401563,23.8599844 C67.3105781,23.835375 66.6786094,23.9527969 66.0837656,24.2130937 C65.7880312,24.3424687 65.5152188,24.5029219 65.26575,24.6871406 L60.2901562,8.46534375 C60.2901562,8.46534375 60.4022344,8.46632812 60.4511719,8.46632812 C61.0266094,8.46632812 61.6014844,8.34707812 62.1448594,8.10942187 C62.440875,7.97990625 62.7138281,7.81945312 62.9634375,7.63495312 C63.0028125,7.76320312 63.027,7.84195312 63.0271406,7.84265625 C63.2514375,8.57334375 64.053,8.99817187 64.7836875,8.775 C65.5167656,8.551125 65.9403281,7.75167187 65.7160312,7.01873437 C65.7160312,7.01873437 64.3327031,2.54039062 64.3322812,2.53940625 C63.8815781,1.50314062 63.0544219,0.705234375 62.0031094,0.2925 C61.5017812,0.095765625 61.1340469,-3.81565488e-06 60.6112031,-3.81565488e-06 C60.2282812,-3.81565488e-06 59.6898281,0.052734375 59.3166094,0.158484375 L45.9690469,2.17785937 C43.8135469,0.970734375 41.002875,1.30120312 39.1418437,3.15801562 C39.1373437,3.162375 39.1329844,3.166875 39.128625,3.171375 L37.3388906,5.00484375 L36.8997187,4.56567187 C36.3505781,4.01667187 35.46,4.01667187 34.9108594,4.56567187 L30.9332812,8.54310937 C30.3841406,9.09225 30.3841406,9.9826875 30.9332812,10.5319687 L39.8830781,19.4813438 C40.4256094,20.0237344 41.3292656,20.023875 41.8719375,19.4813438 L45.8495156,15.5039062 C46.3986562,14.9547656 46.3986562,14.0643281 45.8495156,13.5150469 L45.27225,12.9377812 C45.27225,12.9377812 47.3581406,10.8395156 47.4757031,10.6980469 L57.4969219,8.95204687 L63.1814062,27.4827656 L54.6214219,39.0979687 L47.0143125,35.9744062 C44.5130156,34.9472812 41.6925,34.7506875 39.0726562,35.4200625 L34.5943125,36.5646094 L34.5943125,29.390625 C34.5943125,28.6140938 33.9647344,27.984375 33.1880625,27.984375 L30.3754219,27.984375 L30.3754219,23.765625 C30.3754219,21.4394062 28.48275,19.546875 26.1565312,19.546875 C23.8303125,19.546875 21.9376406,21.4394062 21.9376406,23.765625 C21.9376406,24.5421563 22.5672187,25.171875 23.3438906,25.171875 C24.1205625,25.171875 24.7501406,24.5421563 24.7501406,23.765625 C24.7501406,22.9902188 25.3809844,22.359375 26.1563906,22.359375 C26.9317969,22.359375 27.5626406,22.9902188 27.5626406,23.765625 L27.5626406,27.984375 L19.1247187,27.984375 C18.3480469,27.984375 17.7184687,28.6140938 17.7184687,29.390625 L17.7184687,31.7186719 L15.5678906,28.7119688 C14.6761875,27.4649063 12.8910937,27.1683281 11.6438906,28.0601719 L9.3560625,29.6962031 C9.3560625,29.6962031 7.71989062,27.4085156 7.71989062,27.4085156 L10.0077187,25.7724844 C11.2692656,24.8702344 11.5614844,23.1100313 10.659375,21.8487656 L7.38717187,17.2733906 C6.4850625,16.0122656 4.72485937,15.7199063 3.46317187,16.6217344 L1.17548437,18.2577656 C-0.085921875,19.159875 -0.37828125,20.9200781 0.523828125,22.1814844 L16.0011562,43.8225469 C16.857,45.0192656 17.9377031,45.9779062 19.1543906,46.6695 C18.4512656,47.0912344 17.84925,47.6717344 17.3946094,48.3825938 C16.62075,49.5928125 16.3645312,51.0319688 16.6730625,52.4348437 C17.2085625,54.8693437 19.4333906,56.6568281 21.9263906,56.6568281 C23.1103125,56.6568281 24.080625,56.1832031 25.1236406,55.6894687 L36.4383281,61.0138125 C36.072,61.8011719 35.8326562,62.659125 35.7509531,63.5623594 L14.9058281,63.5623594 C14.1291562,63.5623594 13.4995781,64.1920781 13.4995781,64.9686094 L13.4995781,70.5936094 C13.4995781,71.3701406 14.1291562,71.9998594 14.9058281,71.9998594 L57.0952969,71.9998594 C57.6279844,71.9998594 58.1149687,71.6989219 58.3531875,71.2224844 C58.5914062,70.7460469 58.5399375,70.1760938 58.2204375,69.7498594 L54.0419062,64.1787188 C53.7415312,63.6913125 52.0079062,60.9803438 49.4168906,58.9232812 L59.1080625,50.0927344 L61.3365469,50.9529375 C63.3204844,51.7210312 65.7018281,50.5463906 66.5396719,48.6639844 C67.3983281,46.7346094 66.6388125,44.3782969 64.805625,43.3106719 C64.5519375,43.162875 63.9246094,42.917625 63.9246094,42.917625 L70.8807656,30.9540937 C71.9568281,29.781 72.3221719,28.0494844 71.6890781,26.4923437 L71.6890781,26.4923437 Z M40.8772969,16.4979844 L33.9163594,9.53746875 L35.9052187,7.54875 L42.8661563,14.5092656 L40.8772969,16.4979844 Z M45.1137656,9.11854687 L43.2833906,10.9489219 L39.3280312,6.99370312 L41.1342187,5.14307812 C42.2728594,4.01301562 44.0888906,3.9830625 45.1860469,5.07782812 C46.299375,6.18890625 46.2033281,8.03151562 45.1137656,9.11854687 L45.1137656,9.11854687 Z M48.7724062,7.61709375 C48.7919531,7.423875 48.8022187,7.22882812 48.8022187,7.032375 C48.8022187,6.2015625 48.6230625,5.40028125 48.2842969,4.672125 L56.3013281,3.45923437 C56.1495937,4.26389062 56.2282031,5.12029687 56.5783594,5.925375 C56.6239219,6.03 56.6742656,6.13167187 56.7272812,6.23123437 L48.7724062,7.61709375 Z M59.1575625,4.80360937 C58.845375,4.08571875 59.1752812,3.24604687 59.8931719,2.93203125 C60.588,2.628 61.44525,2.9536875 61.7529375,3.66103125 C62.0652656,4.37892187 61.7353594,5.21859375 61.0173281,5.53260937 C60.3111094,5.84170312 59.4638437,5.50785937 59.1575625,4.80360937 L59.1575625,4.80360937 Z M2.81025,20.5464375 C2.81025,20.5464375 2.81067187,20.5460156 2.81165625,20.5453125 L5.09948437,18.9092813 L8.3716875,23.4846563 L6.08385937,25.1206875 L2.81025,20.5464375 Z M20.5311094,30.796875 L31.7816719,30.796875 L31.7816719,37.2832031 L25.1213906,38.9853281 C23.9882344,39.2745937 22.8173906,38.847375 22.1371875,37.8966094 L20.5311094,35.6511094 L20.5311094,30.796875 Z M22.7005312,53.7250781 C21.3564375,54.3614062 19.7078906,53.1392344 19.4201719,51.8307187 C19.1192344,50.4621562 20.0107969,49.0744687 21.3755625,48.7742344 L31.7830781,46.4769844 C32.5740937,46.3030312 33.206625,46.2157031 33.7629375,46.2157031 C34.803,46.2157031 35.5760156,46.5212812 36.6156562,47.1373594 C36.6156562,47.1372187 22.7023594,53.7242344 22.7005312,53.7250781 L22.7005312,53.7250781 Z M51.6711094,65.69325 C51.6957187,65.7343125 54.2826562,69.1875 54.2826562,69.1875 L16.3122187,69.1875 L16.3122187,66.375 L37.1655,66.375 C37.9909687,66.375 38.6540156,65.6344687 38.5633125,64.8140625 C38.5425,64.6263281 38.5319531,64.4418281 38.5319531,64.265625 C38.5319531,61.5517031 40.7400469,59.34375 43.4541094,59.34375 C47.0538281,59.34375 50.605875,63.927 51.6711094,65.69325 Z M46.9513125,57.364875 C45.8648437,56.853 44.6904844,56.53125 43.4539687,56.53125 C41.378625,56.53125 39.493125,57.3540469 38.1024844,58.6888594 L28.416375,54.1309219 L34.2327656,51.3773437 L41.4320625,53.8783594 C41.8764375,54.032625 42.3684844,53.9548594 42.7431094,53.6706563 L51.3929531,47.1148594 L56.1747656,48.9605625 L46.9513125,57.364875 Z M40.2799219,46.1324531 C40.0332656,45.9746719 38.5493906,45.01575 38.0723906,44.733375 L41.5525781,43.8652969 C42.1174687,43.7246719 42.7031719,43.7606719 43.2462656,43.9703437 L48.3075,45.9240469 L41.6438437,50.9745937 L37.8599062,49.6601719 C37.8599062,49.6601719 40.1191875,48.5905781 40.1239687,48.5883281 C41.1060937,48.1232812 41.194125,46.71675 40.2799219,46.1324531 L40.2799219,46.1324531 Z M64.0240312,47.3761406 C63.7966406,48.1041562 63.0284062,48.5168906 62.2989844,48.3100312 L44.2590469,41.3465625 C43.1727187,40.9272187 42.0013125,40.8546563 40.8718125,41.1364687 L25.7104687,44.9185781 C22.8916406,45.6212812 19.9787344,44.5491562 18.2889844,42.186375 L10.9922344,31.98375 L13.2800625,30.3478594 L19.8495,39.5325 C21.2097656,41.4343125 23.5524375,42.2893125 25.8177656,41.7099375 L39.7690312,38.1445312 C41.8068281,37.6239375 44.0002969,37.7770781 45.9458437,38.5755469 C45.9458437,38.5755469 62.9600625,45.5617969 62.9863594,45.572625 C63.7260469,45.8766562 64.2954375,46.5079219 64.0240312,47.3761406 Z M61.2963281,41.8386094 L57.3037031,40.1992031 L64.3719375,30.6081562 C64.8386719,31.2427969 65.4745781,31.735125 66.2256563,32.0300156 C66.4574063,32.121 66.6940781,32.1899062 66.9331406,32.2387031 L61.2963281,41.8386094 Z M68.3355938,29.3904844 C67.5074531,29.7527344 66.5316563,29.2255312 66.378375,28.3343906 C66.2693906,27.7004531 66.6237656,27.0468281 67.2112969,26.7897656 C67.9149844,26.4817969 68.7664688,26.8181719 69.0713437,27.5189062 C69.3833906,28.2367969 69.0534844,29.0764687 68.3355937,29.3904844 L68.3355938,29.3904844 Z" id="Shape" fill="#474747"></path>
                <circle id="Oval" fill="#000000" cx="66.2363438" cy="13.5" r="1.40625"></circle>
            </g>
        </g>
    </g>
</svg>