<?xml version="1.0" encoding="UTF-8"?>
<svg width="72px" height="74px" viewBox="0 0 72 74" version="1.1" xmlns="http://www.w3.org/2000/svg" xmlns:xlink="http://www.w3.org/1999/xlink">
    <title>icon-1</title>
    <g id="Symbols" stroke="none" stroke-width="1" fill="none" fill-rule="evenodd">
        <g id="icon-1" fill="#474747" fill-rule="nonzero">
            <g id="002-denture">
                <path d="M47.8728893,2.70701896 C48.5930942,2.70701896 49.1770029,2.12311027 49.1770029,1.40321032 C49.1770029,0.683310372 48.5930942,0.0990967742 47.8728893,0.0990967742 C47.1526845,0.0990967742 46.5690807,0.683005459 46.5690807,1.40321032 C46.5690807,2.12341519 47.1529894,2.70701896 47.8728893,2.70701896 Z" id="Path"></path>
                <path d="M65.8612407,9.65812407 C66.5354037,9.65812407 67.0808933,9.11202462 67.0808933,8.43847146 L67.0808933,5.99916625 C67.0808933,5.3256131 66.5354037,4.77951365 65.8612407,4.77951365 C65.1870777,4.77951365 64.6415881,5.3256131 64.6415881,5.99916625 L64.6415881,8.43847146 C64.6415881,9.11202462 65.1870777,9.65812407 65.8612407,9.65812407 Z" id="Path"></path>
                <path d="M65.8612407,12.0974293 C65.1870777,12.0974293 64.6415881,12.6435287 64.6415881,13.3170819 L64.6415881,15.7563871 C64.6415881,16.4299402 65.1870777,16.9760397 65.8612407,16.9760397 C66.5354037,16.9760397 67.0808933,16.4299402 67.0808933,15.7563871 L67.0808933,13.3170819 C67.0808933,12.6435287 66.5354037,12.0974293 65.8612407,12.0974293 Z" id="Path"></path>
                <path d="M60.9826303,12.0974293 L63.4219355,12.0974293 C64.0960985,12.0974293 64.6415881,11.5513298 64.6415881,10.8777767 C64.6415881,10.2042235 64.0960985,9.65812407 63.4219355,9.65812407 L60.9826303,9.65812407 C60.3084673,9.65812407 59.7629777,10.2042235 59.7629777,10.8777767 C59.7629777,11.5513298 60.3084673,12.0974293 60.9826303,12.0974293 Z" id="Path"></path>
                <path d="M70.7398511,9.65812407 L68.3005459,9.65812407 C67.6263829,9.65812407 67.0808933,10.2042235 67.0808933,10.8777767 C67.0808933,11.5513298 67.6263829,12.0974293 68.3005459,12.0974293 L70.7398511,12.0974293 C71.4140141,12.0974293 71.9595037,11.5513298 71.9595037,10.8777767 C71.9595037,10.2042235 71.4140141,9.65812407 70.7398511,9.65812407 Z" id="Path"></path>
                <path d="M4.26878412,64.5424913 C1.9151595,64.5424913 0,66.4576508 0,68.8112754 C0,71.1649 1.9151595,73.0800596 4.26878412,73.0800596 C6.62240873,73.0800596 8.53756824,71.1649 8.53756824,68.8112754 C8.53756824,66.4576508 6.62240873,64.5424913 4.26878412,64.5424913 Z M4.26878412,70.6407543 C3.2598265,70.6407543 2.43930521,69.8202331 2.43930521,68.8112754 C2.43930521,67.8023178 3.2598265,66.9817965 4.26878412,66.9817965 C5.27774174,66.9817965 6.09826303,67.8023178 6.09826303,68.8112754 C6.09826303,69.8202331 5.27774174,70.6407543 4.26878412,70.6407543 Z" id="Shape"></path>
                <path d="M25.9191424,67.1799901 C25.1989376,67.1799901 24.6153338,67.7638988 24.6153338,68.4841036 C24.6153338,69.2043085 25.1992425,69.7879123 25.9191424,69.7879123 C26.6390424,69.7879123 27.223256,69.2040036 27.223256,68.4841036 C27.223256,67.7642037 26.6393473,67.1799901 25.9191424,67.1799901 Z" id="Path"></path>
                <path d="M65.2346442,21.2506172 C47.6664631,16.2079635 29.8479484,16.0326384 12.2794624,20.724642 L11.5165697,20.3072159 L9.60720357,16.8156554 C9.18093499,16.0344679 7.8945064,16.0344679 7.4679329,16.8156554 L5.55856675,20.3072159 L2.06639643,22.216582 C1.67458303,22.4303262 1.43156725,22.8407393 1.43156725,23.2868272 C1.43156725,23.7329151 1.67458303,24.1433282 2.06639643,24.3570724 L5.55856675,26.2664385 L7.32340407,29.4936393 C7.32340407,29.5033965 7.31791563,29.5113243 7.31791563,29.5210815 L7.31791563,35.8873632 C7.31791563,38.2373288 9.23063583,40.1497441 11.5806015,40.1497441 L12.1965261,40.1497441 L12.1965261,43.8087019 L11.5806015,43.8087019 C9.23063583,43.8087019 7.31791563,45.7208123 7.31791563,48.0710829 L7.31791563,57.0343099 C7.31791563,59.1491875 8.8866938,60.9643355 10.9662015,61.2579668 C19.5086483,62.4632885 28.2761211,63.0667117 37.2100764,63.0667117 C46.1943424,63.0667117 55.3453959,62.4568854 64.599815,61.2372328 C66.7092042,60.9597618 68.3005459,59.1397352 68.3005459,57.0041235 L68.3005459,48.0710829 C68.3005459,45.7211172 66.3878257,43.8087019 64.03786,43.8087019 L63.4219355,43.8087019 L63.4219355,40.1497441 L64.03786,40.1497441 C66.3878257,40.1497441 68.3005459,38.2376337 68.3005459,35.8873632 L68.3005459,25.3498696 C68.3005459,23.4542245 67.0391202,21.7680548 65.2346442,21.2506172 Z M7.04166432,24.2973094 L5.19328079,23.2868272 L7.04166432,22.276345 C7.24656596,22.1644419 7.4145731,21.9958249 7.52647623,21.7915331 L8.53756824,19.9428447 L9.54866025,21.7912282 C9.66056337,21.99552 9.82857052,22.164137 10.0334722,22.2760401 L11.8818557,23.2865223 L10.0334722,24.2970045 C9.82857052,24.4089076 9.66056337,24.5775246 9.54866025,24.7818164 L8.53756824,26.6308097 L7.52647623,24.7824262 C7.41426819,24.5778295 7.24656596,24.4095174 7.04166432,24.2973094 Z M17.0751365,49.90666 C15.7304695,49.90666 14.6358313,48.8126317 14.6358313,47.4673548 L14.6358313,42.5887444 L19.5144417,42.5887444 L19.5144417,47.4673548 C19.5144417,48.8126317 18.4198035,49.90666 17.0751365,49.90666 Z M21.9537469,47.4673548 L21.9537469,45.0280496 L26.8323573,45.0280496 L26.8323573,49.90666 C26.8323573,51.2519369 25.7377191,52.3459653 24.3930521,52.3459653 C23.0483851,52.3459653 21.9537469,51.2519369 21.9537469,49.90666 L21.9537469,47.4673548 Z M29.2716625,45.0280496 L36.5895782,45.0280496 L36.5895782,49.90666 C36.5895782,51.9242704 34.9482307,53.5656179 32.9306203,53.5656179 C30.91301,53.5656179 29.2716625,51.9242704 29.2716625,49.90666 L29.2716625,45.0280496 Z M39.0288834,45.0280496 L46.346799,45.0280496 L46.346799,49.90666 C46.346799,51.9242704 44.7054515,53.5656179 42.6878412,53.5656179 C40.6702309,53.5656179 39.0288834,51.9242704 39.0288834,49.90666 L39.0288834,45.0280496 Z M48.7861042,45.0280496 L53.6647146,45.0280496 L53.6647146,47.4673548 L53.6647146,49.90666 C53.6647146,51.2519369 52.5700764,52.3459653 51.2254094,52.3459653 C49.8807424,52.3459653 48.7861042,51.2519369 48.7861042,49.90666 L48.7861042,45.0280496 Z M56.1040199,42.5887444 L60.9826303,42.5887444 L60.9826303,47.4673548 C60.9826303,48.8126317 59.8879921,49.90666 58.5433251,49.90666 C57.1986581,49.90666 56.1040199,48.8126317 56.1040199,47.4673548 L56.1040199,42.5887444 Z M60.9826303,40.1494392 L56.1040199,40.1494392 L56.1040199,36.4904814 L56.1040199,35.2708288 C56.1040199,33.925552 57.1986581,32.8315236 58.5433251,32.8315236 C59.8879921,32.8315236 60.9826303,33.925552 60.9826303,35.2708288 L60.9826303,40.1494392 Z M53.6647146,42.5887444 L48.7861042,42.5887444 L48.7861042,36.4904814 C48.7861042,35.1452046 49.8807424,34.0511762 51.2254094,34.0511762 C52.5700764,34.0511762 53.6647146,35.1452046 53.6647146,36.4904814 L53.6647146,42.5887444 Z M46.346799,42.5887444 L39.0288834,42.5887444 L39.0288834,36.4904814 C39.0288834,34.4728711 40.6702309,32.8315236 42.6878412,32.8315236 C44.7054515,32.8315236 46.346799,34.4728711 46.346799,36.4904814 L46.346799,42.5887444 Z M36.5895782,42.5887444 L29.2716625,42.5887444 L29.2716625,36.4904814 C29.2716625,34.4728711 30.91301,32.8315236 32.9306203,32.8315236 C34.9482307,32.8315236 36.5895782,34.4728711 36.5895782,36.4904814 L36.5895782,42.5887444 Z M26.8323573,42.5887444 L21.9537469,42.5887444 L21.9537469,36.4904814 C21.9537469,35.1452046 23.0483851,34.0511762 24.3930521,34.0511762 C25.7377191,34.0511762 26.8323573,35.1452046 26.8323573,36.4904814 L26.8323573,42.5887444 Z M19.5144417,40.1494392 L14.6358313,40.1494392 L14.6358313,35.2708288 C14.6358313,33.925552 15.7304695,32.8315236 17.0751365,32.8315236 C18.4198035,32.8315236 19.5144417,33.925552 19.5144417,35.2708288 L19.5144417,40.1494392 Z M64.03786,46.2477022 C65.0431587,46.2477022 65.8612407,47.0654793 65.8612407,48.070778 L65.8612407,57.0038186 C65.8612407,57.9197777 65.1821991,58.6997455 64.2805709,58.8189666 C46.0440202,61.2219871 28.2209318,61.2302198 11.3067895,58.84214 C10.4231512,58.7177354 9.75722084,57.9405118 9.75722084,57.034005 L9.75722084,48.070778 C9.75722084,47.0654793 10.5756077,46.2477022 11.5806015,46.2477022 L12.1965261,46.2477022 L12.1965261,47.4673548 C12.1965261,50.1572987 14.3845828,52.3459653 17.0751365,52.3459653 C18.0862285,52.3459653 19.0262757,52.0361735 19.8062436,51.5074541 C20.4724788,53.4091974 22.265978,54.7852705 24.3930521,54.7852705 C25.7575385,54.7852705 26.9890827,54.2193517 27.8751603,53.3137596 C28.9722378,54.9362025 30.8291589,56.0049231 32.9306203,56.0049231 C34.9323752,56.0049231 36.6966027,55.022188 37.8092308,53.5278086 C38.9218589,55.022188 40.6860864,56.0049231 42.6878412,56.0049231 C44.7896075,56.0049231 46.6462237,54.9362025 47.7433012,53.3137596 C48.6293789,54.2193517 49.8609231,54.7852705 51.2254094,54.7852705 C53.3524836,54.7852705 55.1459827,53.4091974 55.812218,51.5074541 C56.5921858,52.0361735 57.5322331,52.3459653 58.5433251,52.3459653 C61.2338787,52.3459653 63.4219355,50.1572987 63.4219355,47.4673548 L63.4219355,46.2477022 L64.03786,46.2477022 Z M65.8615456,35.8870583 C65.8615456,36.8923569 65.0428538,37.710134 64.03786,37.710134 L63.4219355,37.710134 L63.4219355,35.2708288 C63.4219355,32.580885 61.2338787,30.3922184 58.5433251,30.3922184 C56.7626323,30.3922184 55.2185521,31.3609274 54.3666247,32.7888357 C53.5153072,32.0652768 52.427682,31.611871 51.2254094,31.611871 C49.8609231,31.611871 48.6293789,32.1777898 47.7433012,33.0833818 C46.6462237,31.460939 44.7893026,30.3922184 42.6878412,30.3922184 C40.6860864,30.3922184 38.9218589,31.3749534 37.8092308,32.8693328 C36.6966027,31.3749534 34.9323752,30.3922184 32.9306203,30.3922184 C30.828854,30.3922184 28.9722378,31.460939 27.8751603,33.0833818 C26.9890827,32.1777898 25.7575385,31.611871 24.3930521,31.611871 C23.1907796,31.611871 22.1031543,32.0652768 21.2518368,32.7888357 C20.3999095,31.3609274 18.8558293,30.3922184 17.0751365,30.3922184 C14.3845828,30.3922184 12.1965261,32.580885 12.1965261,35.2708288 L12.1965261,37.710134 L11.5806015,37.710134 C10.5753028,37.710134 9.75722084,36.8923569 9.75722084,35.8870583 L9.75722084,29.5207766 C9.75722084,29.5110194 9.75173241,29.5030916 9.75173241,29.4933344 L11.5165697,26.2661336 L15.00874,24.3567674 C15.4005534,24.1430233 15.6435692,23.7326102 15.6435692,23.2865223 C15.6435692,22.9813042 15.5231285,22.6980399 15.3258497,22.4775877 C31.6795617,18.5390245 48.2284181,18.90614 64.5620058,23.5947895 C65.3267279,23.814022 65.8615456,24.5357515 65.8615456,25.3492598 L65.8615456,35.8870583 L65.8615456,35.8870583 Z" id="Shape"></path>
                <path d="M42.6628383,25.6950313 C40.7129187,25.6950313 38.8800858,26.454265 37.503098,27.8324725 C37.0268236,28.3087468 37.0268236,29.0813967 37.503098,29.5576711 C37.7412351,29.7951984 38.0534662,29.9144195 38.3653924,29.9144195 C38.6773185,29.9144195 38.9895496,29.7951984 39.2276867,29.5570612 C40.1448655,28.6392727 41.3645181,28.1343365 42.6628383,28.1343365 C43.861147,28.1343365 45.012804,28.5743262 45.9049799,29.3728937 C46.4053423,29.8232504 47.1758579,29.7808675 47.6271293,29.2786755 C48.0762664,28.7767885 48.0344933,28.0053582 47.5319964,27.5565261 C46.1919031,26.356083 44.4624357,25.6950313 42.6628383,25.6950313 L42.6628383,25.6950313 Z" id="Path"></path>
            </g>
        </g>
    </g>
</svg>