<?xml version="1.0" encoding="UTF-8"?>
<svg width="72px" height="73px" viewBox="0 0 72 73" version="1.1" xmlns="http://www.w3.org/2000/svg" xmlns:xlink="http://www.w3.org/1999/xlink">
    <title>icon-3</title>
    <g id="Symbols" stroke="none" stroke-width="1" fill="none" fill-rule="evenodd">
        <g id="icon-3" fill="#474747" fill-rule="nonzero">
            <g id="009-checkup">
                <path d="M50.6238233,21.4155988 C50.0860356,17.2280335 47.5836167,13.5476595 43.8873561,11.5077145 C40.1910957,9.46718089 35.7434623,9.31243466 31.9136376,11.0893698 C30.8574791,11.591854 29.6312762,11.591854 28.5757061,11.0893698 C23.153112,8.57400628 16.7173117,10.0020267 12.8680702,14.5755753 C9.0194168,19.1485356 8.71051255,25.7337866 12.1149321,30.6468358 C14.1742939,33.6376176 15.5628922,37.0379184 16.1854079,40.6153243 L17.8652589,50.2554916 C18.1676909,51.9841789 19.6710251,53.2445084 21.4261899,53.2398144 L23.3072699,53.2398144 C25.1224503,53.2350941 26.6540272,51.8894482 26.8923248,50.0901543 L28.2179656,39.8304133 C28.2956328,39.2284911 28.8092966,38.777785 29.4165142,38.7795502 L31.0722411,38.7795502 C31.6782819,38.7795502 32.1895921,39.2290795 32.2678478,39.8292364 L33.5934886,50.0901543 C33.8317861,51.890625 35.3657165,53.2368593 37.1820737,53.2398144 L39.0631538,53.2398144 C40.8194953,53.24392 42.3234179,51.9812369 42.6234963,50.2501962 L44.3033473,40.6100288 C44.9258629,37.0332113 46.3144612,33.6329105 48.3738233,30.6421287 C50.2366632,27.9496601 51.0380492,24.6635068 50.6238233,21.4155988 Z M46.3921287,29.2735356 C44.1344796,32.5520397 42.6134937,36.2800732 41.9333159,40.2016867 L40.2464043,49.8359702 C40.1440246,50.4114147 39.6438938,50.8303478 39.0590351,50.82976 L37.1820737,50.82976 C36.5766213,50.82976 36.0658996,50.3802301 35.9876439,49.7806616 L34.6620032,39.5197438 C34.4242939,37.7186846 32.8891867,36.3718619 31.0722411,36.3695084 L29.4165142,36.3695084 C27.6013338,36.3742155 26.0697568,37.7204498 25.8320476,39.5197438 L24.5064068,49.7794849 C24.4287396,50.3796418 23.9174294,50.82976 23.311977,50.82976 L21.4261899,50.82976 C20.8419195,50.8303478 20.3417887,50.4114147 20.2394091,49.8359702 L18.5560277,40.2016867 C17.8752615,36.2800732 16.3542757,32.5520397 14.097215,29.2735356 C11.3164879,25.2542494 11.5700837,19.8716658 14.7167887,16.1318645 C17.8629054,12.3920632 23.1231041,11.2217573 27.5583812,13.2740586 C29.2605909,14.070149 31.2281642,14.070149 32.930374,13.2740586 C37.3656511,11.2217573 42.6264384,12.3920632 45.7725549,16.1318645 C48.9192599,19.8716658 49.1728556,25.2542494 46.3921287,29.2735356 L46.3921287,29.2735356 Z" id="Shape"></path>
                <path d="M65.18057,51.6470319 C63.7507845,50.2819691 61.5001962,50.2819691 60.0698222,51.6470319 L55.3703582,46.9475681 C63.9108264,34.0306616 61.2824921,16.744966 49.2887683,6.95064065 C37.2950444,-2.84368459 19.8328322,-1.96463131 8.88349888,8.98470196 C-2.06583424,19.9340351 -2.94488751,37.3962473 6.84943772,49.3899712 C16.6437631,61.383695 33.9294586,64.0120293 46.846365,55.4715612 L51.5458289,60.1716135 C50.1354603,61.583159 50.1354603,63.8702275 51.5458289,65.2817731 L58.3611402,72.0988494 L60.0662919,70.3948745 L53.2498038,63.5777982 C52.7790925,63.1070869 52.7790925,62.3445346 53.2498038,61.8738233 L61.7714435,53.3533603 C62.2474503,52.8979472 62.9982348,52.8979472 63.4742417,53.3533603 L70.291318,60.1698484 L71.9947045,58.465285 L65.18057,51.6470319 Z M2.52889637,30.3444038 C2.52889637,15.0380492 14.9374347,2.62892259 30.2443775,2.62892259 C45.5513206,2.62892259 57.9598587,15.0380492 57.9598587,30.3444038 C57.9598587,45.6513468 45.5513206,58.0598849 30.2443775,58.0598849 C14.9450837,58.0428217 2.54654812,45.6442861 2.52889637,30.3444038 Z M53.936454,48.9186715 L58.3646704,53.3486532 L53.2486271,58.465285 L48.8186453,54.0364802 C50.7226727,52.540795 52.4407689,50.8226987 53.936454,48.9186715 L53.936454,48.9186715 Z" id="Shape"></path>
                <path d="M30.2443775,17.0891736 C28.3521181,17.1238886 26.4957506,16.5725681 24.9282819,15.5122908 L23.5084989,17.4592704 C25.484898,18.8278635 27.840808,19.5415795 30.2443775,19.4992155 C32.6479472,19.5415795 35.0038573,18.8278635 36.9796678,17.4592704 L35.5598849,15.5122908 C33.9930047,16.5725681 32.136637,17.1233003 30.2443775,17.0891736 Z" id="Path"></path>
            </g>
        </g>
    </g>
</svg>