<?xml version="1.0" encoding="UTF-8"?>
<svg width="72px" height="79px" viewBox="0 0 72 79" version="1.1" xmlns="http://www.w3.org/2000/svg" xmlns:xlink="http://www.w3.org/1999/xlink">
    <title>icon-2</title>
    <g id="Symbols" stroke="none" stroke-width="1" fill="none" fill-rule="evenodd">
        <g id="icon-2" fill="#9DCD48" fill-rule="nonzero">
            <g id="006-tooth">
                <path d="M47.7261538,14.7693846 C42.2395385,14.7693846 39.5686154,18.3369231 37.8012308,20.6976923 C37.2546154,21.4276923 36.34,22.6493846 36,22.6493846 C35.66,22.6493846 34.7453846,21.4276923 34.1987692,20.6976923 C32.4312308,18.3369231 29.7604615,14.7693846 24.2738462,14.7693846 C17.1667692,14.7693846 11.3846154,20.5513846 11.3846154,27.6586154 C11.3846154,31.1026154 11.772,34.0283077 16.7838462,40.3413846 C18.7730769,42.8470769 19.7849231,47.7943077 20.6775385,52.1590769 C21.2629231,55.0216923 21.8158462,57.7255385 22.6173846,59.8012308 C23.0183077,60.8396923 24.2384615,64.0001538 27.1958462,64.0001538 C31.1775385,64.0001538 32.6078462,58.8549231 33.8698462,54.3153846 C34.2884615,52.8095385 34.6838462,51.3870769 35.1264615,50.2850769 C35.5541538,49.2203077 35.8693846,48.8586154 36.0001538,48.7444615 C36.1309231,48.8586154 36.4463077,49.2203077 36.8738462,50.2850769 C37.3164615,51.3870769 37.7118462,52.8095385 38.1304615,54.3153846 C39.3924615,58.8549231 40.8227692,64.0001538 44.8044615,64.0001538 C47.7618462,64.0001538 48.9821538,60.8396923 49.3826154,59.8012308 C50.1841538,57.7255385 50.7369231,55.0216923 51.3224615,52.1590769 C52.2150769,47.7943077 53.2269231,42.8470769 55.2161538,40.3413846 C60.228,34.0281538 60.6153846,31.1026154 60.6153846,27.6586154 C60.6153846,20.5513846 54.8332308,14.7693846 47.7261538,14.7693846 Z M52.8067692,38.4281538 C50.3603077,41.5098462 49.3172308,46.6101538 48.3084615,51.5424615 C47.7495385,54.2755385 47.2215385,56.8570769 46.5127692,58.6929231 C46.1198462,59.7103077 45.5046154,60.9232308 44.8046154,60.9232308 C43.1613846,60.9232308 41.918,56.4507692 41.0952308,53.4912308 C40.5883077,51.6681538 40.1095385,49.9461538 39.4966154,48.592 C39.1652308,47.86 38.1570769,45.6324615 36.0003077,45.6324615 C33.8435385,45.6324615 32.8352308,47.86 32.5043077,48.592 C31.8912308,49.9461538 31.4126154,51.6681538 30.9056923,53.4912308 C30.0830769,56.4507692 28.8396923,60.9232308 27.1963077,60.9232308 C26.4963077,60.9232308 25.8810769,59.7103077 25.4881538,58.6929231 C24.7792308,56.8569231 24.2513846,54.2755385 23.6924615,51.5424615 C22.6838462,46.6101538 21.6406154,41.5098462 19.1941538,38.4281538 C14.462,32.4673846 14.462,30.2389231 14.462,27.6586154 C14.462,22.2481538 18.8636923,17.8463077 24.2743077,17.8463077 C28.2207692,17.8463077 30.0883077,20.3407692 31.7361538,22.5416923 C32.9623077,24.1793846 34.1203077,25.7263077 36.0004615,25.7263077 C37.8806154,25.7263077 39.0386154,24.1793846 40.2647692,22.5416923 C41.9126154,20.3407692 43.7801538,17.8463077 47.7266154,17.8463077 C53.1372308,17.8463077 57.5389231,22.2481538 57.5389231,27.6586154 C57.5389231,30.2390769 57.5389231,32.4673846 52.8067692,38.4281538 Z" id="Shape"></path>
                <path d="M61.3906154,62.5729231 C60.7881538,61.9738462 59.8141538,61.9766154 59.2149231,62.5792308 L59.1884615,62.6058462 C58.5892308,63.2083077 58.592,64.1823077 59.1946154,64.7815385 C59.4947692,65.08 59.8870769,65.2290769 60.2793846,65.2290769 C60.6746154,65.2290769 61.0696923,65.0776923 61.3703077,64.7752308 L61.3967692,64.7486154 C61.996,64.1461538 61.9932308,63.1721538 61.3906154,62.5729231 Z" id="Path"></path>
                <path d="M12.8118462,13.9943077 C12.2126154,13.3916923 11.2383077,13.3890769 10.6361538,13.9881538 L10.6095385,14.0146154 C10.0069231,14.6136923 10.0041538,15.5878462 10.6033846,16.1903077 C10.904,16.4927692 11.2992308,16.644 11.6943077,16.644 C12.0866154,16.644 12.4790769,16.4949231 12.7790769,16.1964615 L12.8056923,16.17 C13.4083077,15.5709231 13.4110769,14.5967692 12.8118462,13.9943077 Z" id="Path"></path>
                <path d="M40.5793846,72.6516923 L37.0881538,69.1603077 C36.6483077,68.7201538 35.9864615,68.5887692 35.4115385,68.8267692 C34.8367692,69.0649231 34.4618462,69.6258462 34.4618462,70.2481538 L34.4618462,72.1647692 C26.274,71.7893846 18.6301538,68.4238462 12.7956923,62.5893846 C1.33076923,51.1246154 0.000153846154,32.7076923 9.70030769,19.7501538 C10.2096923,19.07 10.0709231,18.1058462 9.39076923,17.5966154 C8.71061538,17.0873846 7.74646154,17.2261538 7.23723077,17.9063077 C2.11353846,24.7504615 -0.389538462,33.2413846 0.188923077,41.8150769 C0.773076923,50.4721538 4.47753846,58.6227692 10.62,64.7652308 C17.0363077,71.1813846 25.4516923,74.8667692 34.462,75.2438462 L34.462,77.2310769 C34.462,77.8532308 34.8369231,78.4143077 35.4116923,78.6524615 C35.602,78.7313846 35.802,78.7696923 36.0001538,78.7696923 C36.4006154,78.7696923 36.794,78.6132308 37.0883077,78.3189231 L40.5795385,74.8275385 C41.1803077,74.2266154 41.1803077,73.2524615 40.5793846,72.6516923 Z" id="Path"></path>
                <path d="M71.8103077,36.9352308 C71.2221538,28.2855385 67.5181538,20.1418462 61.3806154,14.0043077 C54.9695385,7.59323077 46.5596923,3.908 37.5564615,3.52646154 L37.5564615,1.53861538 C37.5564615,0.916461538 37.1815385,0.355384615 36.6067692,0.117230769 C36.0318462,-0.121076923 35.3701538,0.0107692308 34.9301538,0.450769231 L31.4389231,3.94215385 C30.8381538,4.54292308 30.8381538,5.51707692 31.4389231,6.11784615 L34.9301538,9.60923077 C35.2244615,9.90369231 35.618,10.06 36.0183077,10.06 C36.2164615,10.06 36.4164615,10.0215385 36.6067692,9.94276923 C37.1815385,9.70461538 37.5564615,9.14369231 37.5564615,8.52138462 L37.5564615,6.60523077 C45.7376923,6.98461538 53.3749231,10.35 59.2049231,16.18 C70.6567692,27.6318462 71.9969231,46.0358462 62.3224615,58.9895385 C61.814,59.6703077 61.9536923,60.6343077 62.6344615,61.1427692 C62.9107692,61.3490769 63.2336923,61.4486154 63.5538462,61.4486154 C64.0226154,61.4486154 64.4856923,61.2350769 64.7876923,60.8306154 C69.8989231,53.9872308 72.3929231,45.5009231 71.8103077,36.9352308 Z" id="Path"></path>
            </g>
        </g>
    </g>
</svg>